<svg xmlns="http://www.w3.org/2000/svg" width="58" height="58" viewBox="0 0 58 58"><g><g><g/><g><path fill="#ffd782" d="M29 58C13.01 58 0 44.99 0 29S13.01 0 29 0s29 13.01 29 29-13.01 29-29 29z"/></g><g><path fill="#ffc36e" d="M42.533 48.33c-15.99 0-29-13.01-29-29 0-6.693 2.302-12.847 6.126-17.76C8.243 5.47 0 16.278 0 28.997c0 15.99 13.01 29 29 29 9.297 0 17.564-4.415 22.875-11.24a28.82 28.82 0 0 1-9.342 1.574z"/></g><g><g><path fill="#fff" d="M16 44a2 2 0 0 1-1.414-3.414l26-26a2 2 0 1 1 2.828 2.828l-26 26c-.39.39-.902.586-1.414.586z"/></g><g><path fill="#fff" d="M20 27c-3.86 0-7-3.14-7-7s3.14-7 7-7 7 3.14 7 7-3.14 7-7 7zm0-10c-1.654 0-3 1.346-3 3s1.346 3 3 3 3-1.346 3-3-1.346-3-3-3z"/></g><g><path fill="#fff" d="M38 45c-3.86 0-7-3.14-7-7s3.14-7 7-7 7 3.14 7 7-3.14 7-7 7zm0-10c-1.654 0-3 1.346-3 3s1.346 3 3 3 3-1.346 3-3-1.346-3-3-3z"/></g></g></g></g></svg>