<svg xmlns="http://www.w3.org/2000/svg" width="58" height="56" viewBox="0 0 58 56"><g><g><g/><g><path fill="#ffd782" d="M33.5 55h-5a1 1 0 0 1-1-1V31a1 1 0 0 1 1-1h5a1 1 0 0 1 1 1v23a1 1 0 0 1-1 1z"/></g><g><path fill="#ffc36e" d="M33.5 55h-5a1 1 0 0 1-1-1V37a1 1 0 0 1 1-1h5a1 1 0 0 1 1 1v17a1 1 0 0 1-1 1z"/></g><g><path fill="#d7deed" d="M43.5 55h-5a1 1 0 0 1-1-1V13a1 1 0 0 1 1-1h5a1 1 0 0 1 1 1v41a1 1 0 0 1-1 1z"/></g><g><path fill="#afb9d2" d="M43.5 55h-5a1 1 0 0 1-1-1V25a1 1 0 0 1 1-1h5a1 1 0 0 1 1 1v29a1 1 0 0 1-1 1z"/></g><g><path fill="#ffd782" d="M13.5 55h-5a1 1 0 0 1-1-1V37a1 1 0 0 1 1-1h5a1 1 0 0 1 1 1v17a1 1 0 0 1-1 1z"/></g><g><path fill="#ffd782" d="M53.5 55h-5a1 1 0 0 1-1-1V7a1 1 0 0 1 1-1h5a1 1 0 0 1 1 1v47a1 1 0 0 1-1 1z"/></g><g><path fill="#ffc36e" d="M53.5 55h-5a1 1 0 0 1-1-1V19a1 1 0 0 1 1-1h5a1 1 0 0 1 1 1v35a1 1 0 0 1-1 1z"/></g><g><path fill="#d7deed" d="M23.5 55h-5a1 1 0 0 1-1-1V25a1 1 0 0 1 1-1h5a1 1 0 0 1 1 1v29a1 1 0 0 1-1 1z"/></g><g><path fill="#afb9d2" d="M23.5 55h-5a1 1 0 0 1-1-1V31a1 1 0 0 1 1-1h5a1 1 0 0 1 1 1v23a1 1 0 0 1-1 1z"/></g><g><path fill="#ffc36e" d="M13.5 55h-5a1 1 0 0 1-1-1V43a1 1 0 0 1 1-1h5a1 1 0 0 1 1 1v11a1 1 0 0 1-1 1z"/></g><g><g><path fill="#d7deed" d="M3 50H1a1 1 0 0 1 0-2h2z"/></g><g><path fill="#d7deed" d="M3 44H1a1 1 0 0 1 0-2h2z"/></g><g><path fill="#d7deed" d="M3 38H1a1 1 0 0 1 0-2h2z"/></g><g><path fill="#d7deed" d="M3 32H1a1 1 0 0 1 0-2h2z"/></g><g><path fill="#d7deed" d="M3 26H1a1 1 0 0 1 0-2h2z"/></g><g><path fill="#d7deed" d="M3 20H1a1 1 0 0 1 0-2h2z"/></g><g><path fill="#d7deed" d="M3 14H1a1 1 0 0 1 0-2h2z"/></g><g><path fill="#d7deed" d="M3 8H1a1 1 0 1 1 0-2h2z"/></g></g><g><path fill="#c7cfe2" d="M3 55a1 1 0 0 1-1-1V1a1 1 0 0 1 2 0v53a1 1 0 0 1-1 1z"/></g><g><path fill="#afb9d2" d="M0 55a1 1 0 0 1 1-1h56a1 1 0 0 1 0 2H1a1 1 0 0 1-1-1z"/></g></g></g></svg>