<svg xmlns="http://www.w3.org/2000/svg" width="58" height="58" viewBox="0 0 58 58"><g><g><g/><g><path fill="#ffd782" d="M27.779 32.78L25.22 30.22l-6.5 6.5 2.559 2.558z"/></g><g><path fill="#ffc36e" d="M22.93 32.508c.778.925 1.634 1.78 2.558 2.559l2.289-2.289-2.559-2.558z"/></g><g><path fill="#ffd782" d="M58 19c0 10.493-8.507 19-19 19s-19-8.507-19-19S28.507 0 39 0s19 8.507 19 19zm-3 0c0-8.837-7.163-16-16-16-8.836 0-16 7.163-16 16s7.164 16 16 16c8.837 0 16-7.163 16-16z"/></g><g><path fill="#707487" d="M2.707 57.414l-2.121-2.12a2 2 0 0 1 0-2.83l16.879-16.878a2 2 0 0 1 2.828 0l2.121 2.12a2 2 0 0 1 0 2.83L5.537 57.413a2 2 0 0 1-2.829 0z"/></g><g><path fill="#5b5d6e" d="M2.586 54.465l16.879-16.88a2 2 0 0 1 2.828 0l.124.124-.003-.002-2.121-2.121a2 2 0 0 0-2.828 0L.585 52.465a2 2 0 0 0 0 2.828l2 1.998a2 2 0 0 1 0-2.827z"/></g><g><path fill="#ffd782" d="M21.18 41.767l1.232-1.232a2 2 0 0 0 0-2.828l-2.122-2.121a2 2 0 0 0-2.828 0l-1.232 1.232z"/></g><g><g><path fill="#ffc36e" d="M18.23 38.818l1.232-1.232a2 2 0 0 1 2.828 0l.124.123-.002-.002-2.122-2.121a2 2 0 0 0-2.828 0l-1.232 1.232z"/></g><g><path fill="#ffc36e" d="M40 28.297v.554a1.15 1.15 0 0 1-2.299 0v-.542c-2.523-.212-4.374-1.169-5.312-2.688-.688-1.115.152-2.554 1.462-2.554h.169c.64 0 1.216.367 1.512.935.382.731 1.154 1.252 2.17 1.44V20.54l-1.003-.237c-3.015-.7-4.629-2.44-4.629-5.041 0-2.975 2.079-4.92 5.632-5.306v-.806a1.15 1.15 0 1 1 2.298 0v.806c2.239.249 3.945 1.219 4.855 2.666.697 1.109-.152 2.552-1.462 2.552a1.692 1.692 0 0 1-1.514-.94c-.34-.68-1.018-1.19-1.879-1.37v4.666l1.127.221c3.203.7 4.804 2.365 4.804 5.08 0 3.118-2.137 5.076-5.931 5.467zm-2.298-11.251v-4.201c-1.192.185-2.016 1.011-2.016 2.103 0 1.02.699 1.739 2.016 2.098zM40 25.487c1.509-.158 2.39-.99 2.39-2.257 0-1.164-.761-1.89-2.39-2.256z"/></g></g></g></g></svg>