<svg xmlns="http://www.w3.org/2000/svg" width="52" height="64" viewBox="0 0 52 64"><g><g><path fill="#d7deed" d="M26 13.241c-3.65 0-6.62-2.97-6.62-6.62C19.38 2.97 22.35 0 26 0c3.652 0 6.622 2.97 6.622 6.62 0 3.652-2.97 6.621-6.621 6.621zm0-11.034a4.418 4.418 0 0 0-4.413 4.414 4.418 4.418 0 0 0 4.414 4.413 4.418 4.418 0 0 0 4.413-4.413 4.418 4.418 0 0 0-4.413-4.414z"/></g><g><path fill="#c7cfe2" d="M27.107 7.72H24.9v6.62h2.207z"/></g><g><path fill="#d7deed" d="M26 63.998c14.016 0 25.378-11.362 25.378-25.379C51.379 24.603 40.017 13.24 26 13.24 11.983 13.24.62 24.603.62 38.62.62 52.635 11.983 63.998 26 63.998z"/></g><g><path fill="#d7deed" d="M27.654 8.83h-3.31c-.61 0-1.104-.494-1.104-1.103V6.624c0-.61.494-1.104 1.104-1.104h3.31c.61 0 1.103.494 1.103 1.103v1.104c0 .61-.494 1.103-1.103 1.103z"/></g><g><path fill="#c7cfe2" d="M26.002 61.795c12.798 0 23.173-10.375 23.173-23.173 0-12.797-10.375-23.172-23.173-23.172-12.797 0-23.172 10.375-23.172 23.172 0 12.798 10.375 23.173 23.172 23.173z"/></g><g><path fill="#fff" d="M25.995 59.591c11.58 0 20.966-9.387 20.966-20.965 0-11.58-9.387-20.966-20.965-20.966-11.58 0-20.966 9.387-20.966 20.966 0 11.578 9.387 20.965 20.965 20.965z"/></g><g><path fill="#ffd782" d="M37.704 50.325a16.5 16.5 0 0 0 4.848-11.703c0-9.141-7.41-16.552-16.552-16.552v16.552z"/></g><g><path fill="#d7deed" d="M7.746 14.98l-.593-.932a1.104 1.104 0 0 1 .338-1.523l2.705-1.722a1.104 1.104 0 0 1 1.524.338l.593.932a1.104 1.104 0 0 1-.339 1.523L9.27 15.318a1.104 1.104 0 0 1-1.523-.338z"/></g><g><path fill="#5b5d6e" d="M26.003 19.86c-.609 0-1.103.494-1.103 1.103v2.207a1.104 1.104 0 0 0 2.207 0v-2.207c0-.609-.494-1.103-1.103-1.103z"/></g><g><path fill="#5b5d6e" d="M26.003 52.97c-.609 0-1.103.494-1.103 1.103v2.207a1.104 1.104 0 0 0 2.207 0v-2.207c0-.609-.494-1.103-1.103-1.103z"/></g><g><path fill="#5b5d6e" d="M44.754 38.623c0-.609-.494-1.103-1.104-1.103h-2.206a1.104 1.104 0 0 0 0 2.207h2.206c.61 0 1.104-.494 1.104-1.103z"/></g><g><path fill="#5b5d6e" d="M11.654 38.623c0-.609-.494-1.103-1.104-1.103H8.343a1.104 1.104 0 0 0 0 2.207h2.207c.61 0 1.104-.494 1.104-1.103z"/></g><g><path fill="#8f96ac" d="M16.622 54.87a1.103 1.103 0 0 0 1.507-.403l1.104-1.912a1.103 1.103 0 0 0-1.911-1.103l-1.104 1.911a1.103 1.103 0 0 0 .404 1.507z"/></g><g><path fill="#8f96ac" d="M33.172 26.2a1.103 1.103 0 0 0 1.507-.404l1.104-1.91a1.103 1.103 0 1 0-1.912-1.104l-1.103 1.911a1.104 1.104 0 0 0 .404 1.507z"/></g><g><path fill="#8f96ac" d="M9.758 29.242a1.103 1.103 0 0 0 .404 1.507l1.911 1.104a1.103 1.103 0 1 0 1.103-1.912l-1.91-1.103a1.103 1.103 0 0 0-1.508.404z"/></g><g><path fill="#8f96ac" d="M38.428 45.792a1.103 1.103 0 0 0 .404 1.507l1.911 1.104a1.103 1.103 0 1 0 1.103-1.911l-1.91-1.104a1.103 1.103 0 0 0-1.508.404z"/></g><g><path fill="#8f96ac" d="M35.379 54.87a1.103 1.103 0 0 1-1.507-.403l-1.104-1.912a1.103 1.103 0 0 1 1.911-1.103l1.104 1.911a1.103 1.103 0 0 1-.404 1.507z"/></g><g><path fill="#8f96ac" d="M18.829 26.2a1.103 1.103 0 0 1-1.507-.404l-1.104-1.91a1.103 1.103 0 1 1 1.911-1.104l1.104 1.911a1.104 1.104 0 0 1-.404 1.507z"/></g><g><path fill="#8f96ac" d="M42.25 29.242a1.103 1.103 0 0 1-.403 1.507l-1.912 1.104a1.103 1.103 0 0 1-1.103-1.912l1.911-1.103a1.104 1.104 0 0 1 1.507.404z"/></g><g><path fill="#8f96ac" d="M13.58 45.792a1.103 1.103 0 0 1-.404 1.507l-1.91 1.104a1.103 1.103 0 1 1-1.104-1.911l1.911-1.104a1.103 1.103 0 0 1 1.507.404z"/></g><g><path fill="#ffc36e" d="M38.138 51.862a1.1 1.1 0 0 1-.78-.323L23.013 37.194a1.103 1.103 0 1 1 1.56-1.56L38.92 49.977a1.103 1.103 0 0 1-.78 1.884z"/></g><g><path fill="#c7cfe2" d="M25.997 40.824a2.207 2.207 0 1 0 0-4.414 2.207 2.207 0 0 0 0 4.414z"/></g></g></svg>