<svg xmlns="http://www.w3.org/2000/svg" width="44" height="48" viewBox="0 0 44 48"><defs><clipPath id="1nl5a"><path fill="#fff" d="M0 48V0h44v48zm1-30.362V30.69a10 10 0 0 0 5.247 8.798l11 5.943a10 10 0 0 0 9.506 0l11-5.943A10 10 0 0 0 43 30.691V17.638a10 10 0 0 0-5.107-8.721l-11-6.172a10 10 0 0 0-9.786 0l-11 6.172A10 10 0 0 0 1 17.637z"/></clipPath></defs><g><g><path fill="#fff" d="M6.107 8.917l11-6.172a10 10 0 0 1 9.786 0l11 6.172A10 10 0 0 1 43 17.637v13.054a10 10 0 0 1-5.247 8.798l-11 5.943a10 10 0 0 1-9.506 0l-11-5.943A10 10 0 0 1 1 30.691V17.638a10 10 0 0 1 5.107-8.721z"/><path fill="none" stroke="#e5e5e5" stroke-miterlimit="50" stroke-width="2" d="M6.107 8.917v0l11-6.172a10 10 0 0 1 9.786 0l11 6.172A10 10 0 0 1 43 17.637v13.054a10 10 0 0 1-5.247 8.798l-11 5.943a10 10 0 0 1-9.506 0l-11-5.943A10 10 0 0 1 1 30.691V17.638a10 10 0 0 1 5.107-8.721z" clip-path="url(&quot;#1nl5a&quot;)"/></g><g><path fill="#fb0" d="M28.4 18c.88 0 1.6.675 1.6 1.5v9c0 .825-.72 1.5-1.6 1.5H15.6c-.88 0-1.6-.675-1.6-1.5l.008-9c0-.825.712-1.5 1.592-1.5zm0 1.5L22 23.25l-6.4-3.75V21l6.4 3.75L28.4 21z"/></g></g></svg>